<?xml version="1.0" encoding="iso-8859-1"?>
<!-- Generator: Adobe Illustrator 19.0.0, SVG Export Plug-In . SVG Version: 6.00 Build 0)  -->
<svg version="1.1" fill="#4cb1ff" id="Capa_1" xmlns="http://www.w3.org/2000/svg" xmlns:xlink="http://www.w3.org/1999/xlink" x="0px" y="0px"
	 viewBox="0 0 512 512" style="enable-background:new 0 0 512 512;" xml:space="preserve">
<g>
	<g>
		<path d="M255.996,85.333c-41.173,0-74.667,33.493-74.667,74.667s33.493,74.667,74.667,74.667s74.667-33.493,74.667-74.667
			S297.17,85.333,255.996,85.333z M255.996,213.333c-29.419,0-53.333-23.915-53.333-53.333s23.915-53.333,53.333-53.333
			c29.419,0,53.333,23.915,53.333,53.333S285.415,213.333,255.996,213.333z"/>
	</g>
</g>
<g>
	<g>
		<path d="M499.538,495.424l-85.333-128c-1.984-2.965-5.312-4.757-8.875-4.757H301.863c-5.888,0-10.667,4.779-10.667,10.667
			c0,5.888,4.779,10.667,10.667,10.667h97.771l71.104,106.667H41.276L112.38,384h97.749c5.888,0,10.667-4.779,10.667-10.667
			c0-5.888-4.779-10.667-10.667-10.667H106.663c-3.563,0-6.891,1.792-8.875,4.736l-85.333,128
			c-2.176,3.285-2.389,7.488-0.512,10.965c1.835,3.456,5.44,5.632,9.387,5.632h469.333c3.947,0,7.552-2.176,9.387-5.611
			C501.927,502.912,501.735,498.688,499.538,495.424z"/>
	</g>
</g>
<g>
	<g>
		<path d="M255.996,0c-88.235,0-160,71.765-160,160c0,85.12,145.344,275.755,151.552,283.819c2.005,2.645,5.141,4.181,8.448,4.181
			c3.307,0,6.443-1.536,8.448-4.181C270.652,435.755,415.996,245.12,415.996,160C415.996,71.765,344.231,0,255.996,0z
			 M255.996,419.52C224.679,377.131,117.33,226.901,117.33,160c0-76.459,62.208-138.667,138.667-138.667S394.663,83.541,394.663,160
			C394.663,226.901,287.314,377.131,255.996,419.52z"/>
	</g>
</g>
<g>
</g>
<g>
</g>
<g>
</g>
<g>
</g>
<g>
</g>
<g>
</g>
<g>
</g>
<g>
</g>
<g>
</g>
<g>
</g>
<g>
</g>
<g>
</g>
<g>
</g>
<g>
</g>
<g>
</g>
</svg>
